<svg width="140" height="25" viewBox="0 0 140 25" fill="none" xmlns="http://www.w3.org/2000/svg">
<path d="M131.295 5.81421L126.643 19.8493H121.289L116.53 5.81421H121.397L122.83 10.6819C123.371 12.4487 123.759 14.1343 123.993 15.7389C124.192 14.4588 124.57 12.8453 125.129 10.8982L126.643 5.81421H131.295Z" fill="black"/>
<path d="M115.709 15.5495C115.492 16.3788 115.078 17.145 114.465 17.8481C113.076 19.4346 111.156 20.2279 108.705 20.2279C106.487 20.2279 104.693 19.6149 103.323 18.389C101.791 17.0188 101.024 15.2069 101.024 12.9534C101.024 10.5917 101.818 8.69869 103.404 7.27445C104.774 6.04851 106.478 5.43555 108.515 5.43555C110.985 5.43555 112.887 6.24683 114.221 7.86938C115.393 9.29363 115.979 11.1596 115.979 13.4672C115.979 13.6295 115.979 13.7737 115.979 13.8999H105.541C105.577 14.9095 105.874 15.7027 106.433 16.2796C106.992 16.8385 107.749 17.118 108.705 17.118C109.876 17.118 110.769 16.5951 111.382 15.5495H115.709ZM111.463 11.2768C111.228 9.45588 110.264 8.54545 108.569 8.54545C106.857 8.54545 105.865 9.45588 105.595 11.2768H111.463Z" fill="black"/>
<path d="M81.479 0.486816H89.754C92.5845 0.486816 94.793 1.20795 96.3795 2.65023C98.3446 4.41701 99.3271 6.87789 99.3271 10.0329C99.3271 13.296 98.4077 15.82 96.5688 17.6048C95.0364 19.1012 92.7558 19.8493 89.727 19.8493H81.479V0.486816ZM86.536 4.65138V15.6848H89.3214C90.9079 15.6848 92.0797 15.2791 92.8369 14.4679C93.7383 13.4763 94.189 12.052 94.189 10.1951C94.189 8.08579 93.5671 6.55338 92.3231 5.59787C91.4758 4.96688 90.358 4.65138 88.9698 4.65138H86.536Z" fill="black"/>
<path d="M78.1918 5.81421L73.1077 19.9845C72.4046 21.9316 71.6474 23.2116 70.8362 23.8246C70.0249 24.4376 68.6908 24.744 66.8339 24.744C65.8423 24.744 64.7155 24.6359 63.4535 24.4195L64.1837 20.7688C64.5803 20.913 65.0941 20.9851 65.7251 20.9851C66.7167 20.9851 67.3477 20.7778 67.6181 20.3631C67.9066 19.9485 68.0508 19.4888 68.0508 18.984C68.0508 18.8758 68.0237 18.7586 67.9697 18.6324L63.1831 5.81421H68.0778L70.0249 12.034C70.2593 12.8092 70.5117 13.9 70.7821 15.3062C71.1427 13.7016 71.4311 12.5568 71.6474 11.8718L73.4863 5.81421H78.1918Z" fill="black"/>
<path d="M60.8925 5.81421V9.30271L56.0248 14.4138C55.8265 14.6121 55.4659 14.9276 54.9431 15.3603C54.6186 15.6307 54.204 15.9642 53.6992 16.3608C54.1138 16.3969 54.4113 16.4149 54.5916 16.4149L55.9437 16.3608H61.4333V19.8493H47.9932V16.3608L52.7527 11.4661C53.1132 11.0875 53.9516 10.3664 55.2676 9.30271C55.0513 9.30271 54.8349 9.30271 54.6186 9.30271H53.618H48.5611V5.81421H60.8925Z" fill="black"/>
<path d="M46.5623 19.8493H41.8839C41.7397 19.3986 41.6586 18.9569 41.6405 18.5242C40.7752 19.66 39.2427 20.2279 37.0433 20.2279C35.4027 20.2279 34.1407 19.7952 33.2573 18.9298C32.4821 18.1726 32.0945 17.172 32.0945 15.9281C32.0945 14.2154 32.8517 13.0075 34.3661 12.3044C35.0151 12.0159 36.3492 11.6824 38.3684 11.3038L41.5594 10.7089V9.87054C41.5233 8.84292 40.8112 8.32911 39.423 8.32911C38.6658 8.32911 38.107 8.46432 37.7464 8.73475C37.4039 8.98715 37.1785 9.44687 37.0703 10.1139H32.7165C32.8787 6.99501 35.1323 5.43555 39.4771 5.43555C41.7848 5.43555 43.5155 5.8502 44.6693 6.67951C45.2102 7.09416 45.5797 7.5629 45.778 8.08572C45.9764 8.59052 46.0755 9.36574 46.0755 10.4114C46.0755 10.5917 46.0665 11.1506 46.0485 12.088V12.3855L46.0214 14.7112C46.0214 15.3422 46.0214 15.7658 46.0214 15.9822C46.0214 16.1985 46.0124 16.541 45.9944 17.0098C45.9944 17.2622 45.9944 17.4605 45.9944 17.6047C45.9944 18.6143 46.1837 19.3625 46.5623 19.8493ZM41.6135 13.4402L39.5042 13.8999C38.4044 14.1523 37.6743 14.4047 37.3137 14.6571C36.9531 14.9095 36.7729 15.2881 36.7729 15.7929C36.7729 16.8926 37.3948 17.4425 38.6388 17.4425C39.6844 17.4425 40.4957 17.0729 41.0726 16.3337C41.3971 15.9371 41.5684 15.3061 41.5864 14.4407L41.6135 13.4402Z" fill="black"/>
<path d="M31.1898 5.73302L31.1628 9.51898C30.4957 9.32067 29.8647 9.22152 29.2698 9.22152C26.9261 9.22152 25.7542 10.7269 25.7542 13.7376V19.8493H21.157V5.81414H25.592V8.22094C26.1328 6.36401 27.6382 5.43555 30.1081 5.43555C30.3965 5.43555 30.7571 5.5347 31.1898 5.73302Z" fill="black"/>
<path d="M18.9098 12.3044C18.7836 14.3236 18.0895 16.0633 16.8275 17.5236C15.223 19.3986 12.9334 20.3361 9.95872 20.3361C6.78572 20.3361 4.32484 19.2363 2.57608 17.0369C1.07972 15.1799 0.331543 12.8813 0.331543 10.141C0.331543 7.31052 1.18789 4.93077 2.90059 3.00173C4.68541 1.00058 7.0922 0 10.121 0C12.6449 0 14.7453 0.784236 16.4219 2.35271C17.8642 3.70484 18.6484 5.36345 18.7746 7.32855H13.8529C13.6545 6.44516 13.3481 5.77811 12.9334 5.3274C12.2303 4.55217 11.2658 4.16456 10.0398 4.16456C8.52546 4.16456 7.35361 4.76852 6.5243 5.97642C5.8212 7.0401 5.46964 8.4373 5.46964 10.168C5.46964 12.1692 5.92035 13.7016 6.82177 14.7653C7.61502 15.7027 8.66969 16.1715 9.98576 16.1715C11.3379 16.1715 12.3655 15.6757 13.0686 14.6841C13.4472 14.1433 13.7086 13.35 13.8529 12.3044H18.9098Z" fill="black"/>
<circle cx="136.288" cy="16.469" r="3.38033" fill="#FF7E21"/>
</svg>
