<svg width="140" height="25" viewBox="0 0 140 25" fill="none" xmlns="http://www.w3.org/2000/svg">
<path d="M130.963 5.94217L126.312 19.9773H120.957L116.198 5.94217H121.066L122.499 10.8098C123.04 12.5766 123.427 14.2623 123.662 15.8668C123.86 14.5868 124.239 12.9732 124.797 11.0262L126.312 5.94217H130.963Z" fill="white"/>
<path d="M115.377 15.6775C115.161 16.5068 114.746 17.273 114.133 17.9761C112.745 19.5626 110.825 20.3559 108.373 20.3559C106.156 20.3559 104.362 19.7429 102.992 18.517C101.459 17.1468 100.693 15.335 100.693 13.0814C100.693 10.7197 101.486 8.82672 103.073 7.40247C104.443 6.17654 106.147 5.56357 108.184 5.56357C110.654 5.56357 112.556 6.37485 113.89 7.99741C115.062 9.42165 115.648 11.2876 115.648 13.5952C115.648 13.7575 115.648 13.9017 115.648 14.0279H105.209C105.245 15.0375 105.543 15.8308 106.102 16.4077C106.66 16.9665 107.418 17.246 108.373 17.246C109.545 17.246 110.437 16.7232 111.05 15.6775H115.377ZM111.131 11.4048C110.897 9.58391 109.933 8.67348 108.238 8.67348C106.525 8.67348 105.534 9.58391 105.263 11.4048H111.131Z" fill="white"/>
<path d="M81.1475 0.61478H89.4226C92.253 0.61478 94.4615 1.33592 96.048 2.77819C98.0131 4.54497 98.9956 7.00585 98.9956 10.1608C98.9956 13.424 98.0762 15.9479 96.2373 17.7328C94.7049 19.2291 92.4243 19.9773 89.3955 19.9773H81.1475V0.61478ZM86.2045 4.77934V15.8127H88.9899C90.5764 15.8127 91.7482 15.4071 92.5054 14.5958C93.4068 13.6043 93.8575 12.18 93.8575 10.3231C93.8575 8.21376 93.2356 6.68134 91.9916 5.72584C91.1443 5.09484 90.0265 4.77934 88.6383 4.77934H86.2045Z" fill="white"/>
<path d="M77.8601 5.94217L72.7761 20.1125C72.073 22.0596 71.3158 23.3396 70.5045 23.9526C69.6933 24.5655 68.3592 24.872 66.5022 24.872C65.5107 24.872 64.3839 24.7638 63.1219 24.5475L63.8521 20.8967C64.2487 21.041 64.7625 21.1131 65.3935 21.1131C66.3851 21.1131 67.0161 20.9058 67.2865 20.4911C67.5749 20.0764 67.7192 19.6167 67.7192 19.1119C67.7192 19.0038 67.6921 18.8866 67.638 18.7604L62.8515 5.94217H67.7462L69.6933 12.162C69.9276 12.9372 70.18 14.0279 70.4505 15.4341C70.811 13.8296 71.0995 12.6848 71.3158 11.9997L73.1547 5.94217H77.8601Z" fill="white"/>
<path d="M60.5609 5.94217V9.43067L55.6932 14.5417C55.4949 14.74 55.1343 15.0555 54.6115 15.4882C54.287 15.7586 53.8724 16.0922 53.3676 16.4888C53.7822 16.5248 54.0797 16.5429 54.26 16.5429L55.6121 16.4888H61.1018V19.9773H47.6616V16.4888L52.4211 11.5941C52.7816 11.2155 53.62 10.4943 54.936 9.43067C54.7197 9.43067 54.5034 9.43067 54.287 9.43067H53.2864H48.2295V5.94217H60.5609Z" fill="white"/>
<path d="M46.2306 19.9773H41.5523C41.408 19.5266 41.3269 19.0849 41.3089 18.6522C40.4435 19.788 38.9111 20.3559 36.7116 20.3559C35.071 20.3559 33.8091 19.9232 32.9257 19.0578C32.1504 18.3006 31.7628 17.3001 31.7628 16.0561C31.7628 14.3434 32.52 13.1355 34.0344 12.4324C34.6834 12.1439 36.0175 11.8104 38.0367 11.4318L41.2277 10.8369V9.99856C41.1917 8.97094 40.4796 8.45713 39.0914 8.45713C38.3342 8.45713 37.7753 8.59235 37.4147 8.86277C37.0722 9.11517 36.8468 9.57489 36.7387 10.2419H32.3848C32.5471 7.12303 34.8006 5.56357 39.1455 5.56357C41.4531 5.56357 43.1838 5.97823 44.3377 6.80753C44.8785 7.22219 45.2481 7.69092 45.4464 8.21375C45.6447 8.71854 45.7439 9.49377 45.7439 10.5394C45.7439 10.7197 45.7348 11.2786 45.7168 12.2161V12.5135L45.6898 14.8392C45.6898 15.4702 45.6898 15.8939 45.6898 16.1102C45.6898 16.3265 45.6808 16.6691 45.6627 17.1378C45.6627 17.3902 45.6627 17.5885 45.6627 17.7328C45.6627 18.7423 45.852 19.4905 46.2306 19.9773ZM41.2818 13.5682L39.1725 14.0279C38.0728 14.2803 37.3426 14.5327 36.9821 14.7851C36.6215 15.0375 36.4412 15.4161 36.4412 15.9209C36.4412 17.0206 37.0632 17.5705 38.3071 17.5705C39.3528 17.5705 40.1641 17.2009 40.741 16.4617C41.0655 16.0651 41.2368 15.4341 41.2548 14.5688L41.2818 13.5682Z" fill="white"/>
<path d="M30.8582 5.86104L30.8311 9.64701C30.1641 9.4487 29.5331 9.34954 28.9381 9.34954C26.5945 9.34954 25.4226 10.8549 25.4226 13.8657V19.9773H20.8254V5.94217H25.2604V8.34896C25.8012 6.49204 27.3066 5.56357 29.7765 5.56357C30.0649 5.56357 30.4255 5.66273 30.8582 5.86104Z" fill="white"/>
<path d="M18.5783 12.4324C18.4521 14.4516 17.758 16.1913 16.496 17.6516C14.8915 19.5266 12.6019 20.4641 9.62717 20.4641C6.45417 20.4641 3.99329 19.3643 2.24454 17.1649C0.748179 15.3079 0 13.0093 0 10.269C0 7.43852 0.85635 5.05877 2.56905 3.12973C4.35386 1.12858 6.76066 0.127998 9.78943 0.127998C12.3134 0.127998 14.4137 0.912234 16.0904 2.48071C17.5326 3.83284 18.3169 5.49145 18.4431 7.45655H13.5213C13.323 6.57316 13.0165 5.90611 12.6019 5.4554C11.8988 4.68017 10.9342 4.29256 9.7083 4.29256C8.19391 4.29256 7.02207 4.89651 6.19276 6.10442C5.48965 7.16809 5.1381 8.5653 5.1381 10.296C5.1381 12.2972 5.58881 13.8296 6.49023 14.8933C7.28348 15.8307 8.33814 16.2995 9.65422 16.2995C11.0063 16.2995 12.034 15.8037 12.7371 14.8121C13.1157 14.2713 13.3771 13.478 13.5213 12.4324H18.5783Z" fill="white"/>
<circle cx="135.957" cy="16.597" r="3.38033" fill="#FF7E21"/>
</svg>
